<?xml version="1.0" standalone="no"?><!DOCTYPE svg PUBLIC "-//W3C//DTD SVG 1.1//EN" "http://www.w3.org/Graphics/SVG/1.1/DTD/svg11.dtd"><svg t="1655342259469" class="icon" viewBox="0 0 1024 1024" version="1.1" xmlns="http://www.w3.org/2000/svg" p-id="6458" xmlns:xlink="http://www.w3.org/1999/xlink" width="64" height="64"><defs><style type="text/css"></style></defs><path d="M931.2 985.6H89.6c-30.4 0-56-25.6-56-56V182.4c0-30.4 25.6-56 56-56h841.6c30.4 0 56 25.6 56 56v747.2c-1.6 30.4-25.6 56-56 56z m-833.6-64h824V190.4H97.6v731.2z" fill="#43484D" p-id="6459"></path><path d="M931.2 424H89.6c-17.6 0-32-14.4-32-32s14.4-32 32-32h841.6c17.6 0 32 14.4 32 32s-14.4 32-32 32z" fill="#43484D" p-id="6460"></path><path d="M276.8 284.8c-17.6 0-32-14.4-32-32V65.6c0-17.6 14.4-32 32-32s32 14.4 32 32v187.2c0 17.6-14.4 32-32 32zM744 284.8c-17.6 0-32-14.4-32-32V65.6c0-17.6 14.4-32 32-32s32 14.4 32 32v187.2c0 17.6-14.4 32-32 32zM456 808c-8 0-16-3.2-22.4-9.6l-126.4-129.6c-12.8-12.8-12.8-33.6 0-44.8 12.8-12.8 33.6-12.8 44.8 0l104 107.2 225.6-212.8c12.8-12.8 33.6-11.2 44.8 1.6 12.8 12.8 11.2 33.6-1.6 44.8L478.4 798.4c-6.4 6.4-14.4 9.6-22.4 9.6z" fill="#229BFF" p-id="6461"></path></svg>